<svg version="1.1" viewBox="0 0 1000 1000" xmlns="http://www.w3.org/2000/svg"><g transform="matrix(.97895 0 0 .97895 -2.2026 -2.2026)"><g stroke="#443c3c" stroke-width="1.5"><circle cx="513" cy="513" r="510" fill="#eee"/><circle cx="513" cy="513" r="440" fill="#443c3c"/><circle cx="513" cy="513" r="387" fill="#8e2222"/></g><g stroke-width="1.5"><circle cx="513" cy="513" r="378" fill="#eee" stroke="#8e2222"/><circle cx="511.67" cy="514.33" r="265" fill="#443c3c" stroke="#443c3c"/></g><g stroke="#8e2222"><path d="m176.71 682.24-5.71-356.67c0.634-53.106 17.5-47.829 30.454-49.405 198.58 10.83 270.91 71.252 275.35 73.499 13.323 5.018 20.937 31.782 20.302 31.123 0.634 0.658 4.441 420.6 3.807 419.94 3.172 22.455-13.323 21.002-13.958 20.343-124.99-98.152-297.56-122.85-298.19-123.51-12.055-0.795-12.055-15.326-12.055-15.326zm670.08 0.82 5.711-357.54c-0.635-53.236-17.501-47.946-30.456-49.526-198.6 10.857-270.93 71.426-275.38 73.679-13.325 5.03-20.939 31.859-20.304 31.199-0.635 0.66-4.442 421.63-3.807 420.97-3.173 22.51 13.325 21.053 13.959 20.393 125-98.392 297.58-123.15 298.22-123.81 12.056-0.797 12.056-15.363 12.056-15.363z" fill="#eee" stroke-width="10"/><path d="m174.14 739.57-5.802-356.67c0.645-53.106 17.782-47.829 30.945-49.405 201.79 10.83 275.28 71.252 279.8 73.499 13.539 5.018 21.275 31.782 20.63 31.123 0.645 0.658 4.513 420.6 3.868 419.94 3.224 22.455-13.539 21.002-14.183 20.343-127-98.152-302.36-122.85-303.01-123.51-12.249-0.795-12.249-15.326-12.249-15.326zm675.22 0.49 5.803-357.54c-0.645-53.236-17.784-47.946-30.948-49.526-201.81 10.857-275.31 71.426-279.82 73.679-13.54 5.03-21.277 31.859-20.632 31.199-0.645 0.66-4.513 421.63-3.869 420.97-3.224 22.51 13.54 21.053 14.184 20.393 127.02-98.392 302.39-123.15 303.03-123.81 12.25-0.797 12.25-15.363 12.25-15.363z" fill="#8e2222" stroke-width="5"/></g></g></svg>
