<svg xmlns="http://www.w3.org/2000/svg" viewBox="0 0 48 48"><g clip-rule="evenodd"><path fill="#eee" fill-rule="evenodd" d="M47.978 24c0 6.602-2.331 12.26-6.993 16.974a3.773 3.773 0 0 1-.52.509 20.53 20.53 0 0 1-2.435 2.047C33.988 46.51 29.318 48 24.022 48c-5.304 0-9.966-1.49-13.986-4.47a21.726 21.726 0 0 1-2.988-2.556c-3.622-3.6-5.846-7.783-6.672-12.548-.162-.93-.27-1.874-.32-2.833a38.27 38.27 0 0 1 0-3.197c0-.052.014-.104.044-.155.346-5.887 2.662-10.973 6.948-15.259C11.762 2.327 17.42 0 24.022 0c6.624 0 12.279 2.327 16.963 6.982 4.662 4.743 6.993 10.416 6.993 17.018z"/><path fill="#3a3f51" fill-rule="evenodd" d="m43.098 9.405-4.957 4.957c-2.899 2.899-3.153 5.422-3.153 9.87 0 3.97.63 7.602 3.585 10.556 2.156 2.157 4.204 4.194 4.204 4.194a27.962 27.962 0 0 1-1.792 1.992 3.773 3.773 0 0 1-.52.509 20.05 20.05 0 0 1-1.749 1.538l-3.883-3.884c-3.452-3.452-6.196-3.784-10.756-3.784-4.375 0-7.352.403-10.556 3.607a2715.831 2715.831 0 0 0-4.105 4.116 21.196 21.196 0 0 1-2.368-2.102 27.739 27.739 0 0 1-1.737-1.903s2.168-2.18 4.238-4.25c3.066-3.065 3.563-6.62 3.563-10.589 0-3.872-.636-7.485-3.452-10.301C7.705 11.975 5 9.284 5 9.284a25.954 25.954 0 0 1 2.047-2.302A29.761 29.761 0 0 1 9.04 5.201l4.504 4.503c2.877 2.877 6.565 3.618 10.533 3.618 4.087 0 7.763-.791 10.756-3.784 1.84-1.841 4.27-4.26 4.27-4.26a25.168 25.168 0 0 1 1.882 1.704c.767.782 1.471 1.59 2.113 2.423z"/><path fill="#0cf" fill-rule="evenodd" d="M17.438 25.228a6.986 6.986 0 0 1-.1-1.228c0-.155.005-.303.012-.443 0-.014.004-.029.011-.044.096-1.63.738-3.039 1.925-4.227 1.306-1.29 2.874-1.936 4.703-1.936 1.837 0 3.404.645 4.703 1.936 1.29 1.313 1.936 2.884 1.936 4.714s-.645 3.397-1.936 4.703c-.045.051-.093.1-.144.143a6.056 6.056 0 0 1-.675.565c-1.121.826-2.416 1.239-3.884 1.239s-2.759-.413-3.873-1.24a5.818 5.818 0 0 1-.83-.707c-1.003-.996-1.619-2.155-1.848-3.475z"/><path fill="none" stroke="#0cf" stroke-miterlimit="1" stroke-width=".4426" d="m34.943 13.223-3.32 3.242M6.834 7.198l9.044 9.012M34.6 34.855l6.154 6.369m.41-34.056-6.22 6.056M7.18 41.107l6.053-6.063"/><path fill="none" stroke="#0cf" stroke-miterlimit="1" stroke-width="1.5491" d="m34.943 13.223-3.75 3.806m-18.12-3.617 3.806 3.795m-3.662 17.854 3.706-3.851m13.705-.309 3.99 3.971"/></g></svg>