<?xml version="1.0" encoding="UTF-8"?>
<svg width="100px" height="54px" viewBox="0 0 100 54" version="1.1" xmlns="http://www.w3.org/2000/svg" xmlns:xlink="http://www.w3.org/1999/xlink">
    <title>Logo tvdb</title>
    <g id="Logo-tvdb" stroke="none" stroke-width="1" fill="none" fill-rule="evenodd">
        <path d="M0,5.09590006 C0,1.81024006 2.9636,-0.441498938 6.46228,0.0733078623 L6.46228,0.0733078623 L52.10124,6.03470006 C54.15254,6.33652006 55.78724,8.54666006 55.78724,10.9536001 L55.78724,10.9536001 L55.78654,17.1835001 C51.94104,19.7605001 49.42044,24.0737001 49.42044,28.9596001 C49.42044,33.8924001 51.87974,38.1680001 55.78724,40.7361001 L55.78724,40.7361001 L55.78724,43.4756001 C55.78724,45.8825001 54.15254,48.0927001 52.10124,48.3945001 L52.10124,48.3945001 L11.60314,53.9266001 C8.10444,54.4417001 5.14084,52.1897001 5.14084,48.9040001 L5.14084,48.9040001 Z M19.68044,10.8218001 L13.66114,10.8218001 L13.66114,18.7064001 L9.84244,18.7064001 L9.84244,23.2621001 L13.66114,23.2621001 L13.66114,32.0227001 C13.4846091,37.5274601 15.6467584,39.9923503 20.6149401,40.0386142 L25.25134,40.0387001 L25.25134,35.4830001 L22.87064,35.4830001 C20.17484,35.3516001 19.59134,34.5631001 19.68074,31.0149001 L19.68074,23.2617001 L27.08014,23.2617001 L33.93424,40.0384001 L40.40294,40.0384001 L49.83694,18.7061001 L43.45734,18.7061001 L37.34794,33.3806001 L31.77694,18.7064001 L19.68044,18.7064001 L19.68044,10.8218001 Z" id="Combined-Shape" fill="#6CD591" fill-rule="nonzero"></path>
        <path d="M88.60974,18.2771001 C92.51784,18.2771001 95.12314,19.2407001 97.09994,21.4310001 C98.71734,23.1831001 99.57074,25.7677001 99.57074,28.6584001 C99.57074,32.8634001 97.86394,36.1487001 94.76414,38.0323001 C92.74234,39.2590001 90.99054,39.6094001 87.03734,39.6094001 L77.24404,39.6094001 L77.24404,10.3925001 L83.26404,10.3925001 L83.26404,18.2771001 L88.60974,18.2771001 Z M83.26404,35.0537001 L87.71094,35.0537001 C91.26004,35.0537001 93.41634,32.6884001 93.41634,28.8334001 C93.41634,24.8035001 91.52964,22.8324001 87.71094,22.8324001 L83.26404,22.8324001 L83.26404,35.0537001 Z" id="Shape" fill="#FFFFFF" fill-rule="nonzero"></path>
        <path d="M68.01354,10.3925001 L74.03354,10.3925001 L74.03354,39.6094001 L63.65594,39.6094001 C59.43354,39.6094001 57.41174,38.9962001 55.25524,37.1126001 C53.05394,35.1416001 51.93124,32.3384001 51.93124,28.7898001 C51.93124,25.1102001 53.14404,22.3070001 55.70494,20.2481001 C57.32204,18.9342001 59.52364,18.2771001 62.35354,18.2771001 L68.01384,18.2771001 L68.01384,10.3925001 L68.01354,10.3925001 Z M68.01354,22.8327001 L63.65594,22.8327001 C60.15224,22.8327001 58.04064,25.0667001 58.04064,28.7898001 C58.04064,32.6884001 60.19654,35.0537001 63.65594,35.0537001 L68.01354,35.0537001 L68.01354,22.8327001 Z" id="Shape" fill="#FFFFFF" fill-rule="nonzero"></path>
    </g>
</svg>