<svg xmlns="http://www.w3.org/2000/svg" width="776.05671" height="538.35004" viewBox="0 0 776.05671 538.35004" xmlns:xlink="http://www.w3.org/1999/xlink"><path d="M292.46221,105.10677c-5.91046-21.54889,41.76024-40.02748,54.27848-22.67413,1.7407-2.46712,8.1736-3.96568,11.12518-3.20887,2.95158,.75681,5.43385,2.64884,7.8557,4.48036,3.32999,2.55803,6.781,5.20686,8.82435,8.88496,2.0586,3.66294,2.3764,8.65797-.39346,11.83654-2.19477,2.52772-8.67312,4.16246-11.97281,4.82846-2.30064,.46922-4.23812,.84762-5.90307,1.12007-1.48341-2.16447-2.24022-4.84361-1.96778-7.46215-2.24013,1.48332-3.75375,4.0262-3.99589,6.72049-.04545,.56003,18.60239,69.17256,18.60239,69.17256-1.92233,1.13522-4.29873,2.19477-7.03838,3.16342-4.64674-7.00808-8.4611-15.2724-10.97376-23.91522-.57518,5.34313-.48428,11.14024,.21193,17.02825,.36325,3.13321,.90823,6.28157,1.60444,9.42984-22.15946,4.7831-55.48936,3.20896-69.98989-17.13412-.00257-.08416-.00501-.16838-.00731-.25267-.10376-3.80654-5.29738-4.75249-6.68709-1.20718-.35181,.89752-.67559,1.67439-.96453,2.29232-4.22297-15.10601,1.24118-32.58834,17.39151-63.10292Z" fill="#2f2e41"/><path d="M593.6724,275.98781c-5.24295,6.21853-14.53432,7.00941-20.75291,1.76645-.60238-.50792-1.16306-1.06331-1.67661-1.66093l-69.98015,22.16457-10.88971-17.84914,83.30897-25.71748c6.53602-4.82227,15.7437-3.43301,20.56597,3.10298,4.03502,5.46901,3.79706,12.99055-.57557,18.19355Z" fill="#ffb6b6"/><path d="M345.84176,220.60115s30.99046-34.85718,44.48977-20.05024c13.49931,14.80695,55.61582,79.692,55.61582,79.692l98.3134-20.74213,9.50734,25.94559-111.63041,36.17413c-8.39197,2.71944-17.58871-.10054-23.01386-7.0567l-73.28205-93.96266Z" fill="#fa5252"/><path d="M413.14996,538.35004h-153.70996l-.14001-1.20001-.09003-.79999-1.32001-11.20001-1.87-15.95001-.71997-6.13c-.04999-.31-.10004-.60999-.14001-.91998-.63-3.98999-.98999-8-1.12-12-.19-5.5,.06-10.98999,.65002-16.41003v-.02997c.31995-2.92999,.72998-5.83002,1.23999-8.70001,.63995-3.69,1.40997-7.32001,2.29999-10.87,1.02002-4.12,2.17999-8.13,3.45001-12,1.45996-4.53003,3.06-8.87,4.70996-12.97003,.17999-.44,.36005-.87994,.53003-1.31l.01001-.00995c8.69995-21.21002,18.57996-35.70001,18.57996-35.70001h111.98004s5.17999,22.72998,7.75,41.5c.40997,2.96997,.75,5.82996,1,8.48999,.45001,4.90997,.57996,9.13,.19,12-.23999,1.77997-.67999,3.03998-1.36005,3.62-6.15997,5.26001,.89001,16.41998,.89001,16.41998,0,0,5.28003,8.07001,.67999,12.61005-.90997,.89996-1.42999,2.06-1.67999,3.35999-.39996,2.14996-.04999,4.64996,.5,6.85999,.54999,2.21997,1.31,4.15002,1.73004,5.14001,.18994,.44,.31,.69,.31,.69l.77997,6.16998,.76001,5.94,1.28998,10.20001,.39001,1.79999,2.01001,9.40002,.16998,.79999,.25,1.20001Z" fill="#2f2e41"/><path d="M335.50826,172.91241l-46.99763,4.18577-8.66227,26.95565-9.4399,1.3668c-16.13102,2.33561-25.73153,19.25402-19.46384,34.29998l8.306,19.93903s-12.20035,37.65792,2.78365,53.48051l6.3765,69.68838-14.38369,45.94076,168.13288,5.42735-28.6391-57.62539-.84923-35.77979s18.30059-64.67169,1.33374-85.24247l-6.61993-58.50951-34.48974-5.17346-17.38745-18.9536Z" fill="#fa5252"/><circle cx="329.50442" cy="129.56077" r="38.82517" transform="translate(128.87027 421.28854) rotate(-76.94666)" fill="#ffb6b6"/><path d="M271.27149,108.13401c-5.91046-21.54889,41.76024-40.02748,54.27848-22.67413,1.7407-2.46712,8.1736-3.96568,11.12518-3.20887,2.95158,.75681,5.43385,2.64884,7.8557,4.48036,3.32999,2.55803,6.781,5.20686,8.82435,8.88496,2.0586,3.66294,2.3764,8.65797-.39346,11.83654-2.19477,2.52772-8.67312,4.16246-11.97281,4.82846-2.30064,.46922-4.23812,.84762-5.90307,1.12007-1.48341-2.16447-2.24022-4.84361-1.96778-7.46215-2.24013,1.48332-3.75375,4.0262-3.99589,6.72049-.04545,.56003,18.60239,69.17256,18.60239,69.17256-1.92233,1.13522-4.29873,2.19477-7.03838,3.16342-4.64674-7.00808-8.4611-15.2724-10.97376-23.91522-.57518,5.34313-.48428,11.14024,.21193,17.02825,.36325,3.13321,.90823,6.28157,1.60444,9.42984-22.15946,4.7831-55.48936,3.20896-69.98989-17.13412-.00257-.08416-.00501-.16838-.00731-.25267-.10376-3.80654-5.29738-4.75249-6.68709-1.20718-.35181,.89752-.67559,1.67439-.96453,2.29232-4.22297-15.10601,1.24118-32.58834,17.39151-63.10292Z" fill="#2f2e41"/><path d="M603.15997,537.15002H81.15997l-81,1,568.06224-33.91416c18.94927-1.1313,34.93776,13.93112,34.93776,32.91413v.00004Z" fill="#3f3d56"/><polygon points="731 536.35004 731 538.35004 0 538.35004 0 0 2 0 2 536.35004 731 536.35004" fill="#3f3d56"/><path d="M652.78254,124.51928h-133.05209c-3.0682,0-5.56474-2.48743-5.56474-5.54444s2.49654-5.54328,5.56474-5.54328h133.05209c3.0682,0,5.56358,2.48627,5.56358,5.54328s-2.49538,5.54444-5.56358,5.54444Z" fill="#fa5252"/><path d="M586.2064,142.39977c-.4975-1.22559-2.21483-1.22547-2.7121,.00035-3.469,8.55193-8.4077,18.1291-13.77967,25.44815-.86008,1.17182,.32563,2.73763,1.6925,2.24318l11.51531-4.16603v71.28412h3.85487v-71.28424l11.51955,4.16662c1.36687,.49445,2.55246-1.07136,1.69239-2.24318-5.3722-7.31917-10.31149-16.89669-13.78285-25.44898Z" fill="#3f3d56"/><path d="M772.62662,165.26743h-82.0301c-1.89163,0-3.43081-1.53356-3.43081-3.41829s1.53918-3.41758,3.43081-3.41758h82.0301c1.89163,0,3.43009,1.53285,3.43009,3.41758s-1.53847,3.41829-3.43009,3.41829Z" fill="#f2f2f2"/><path d="M731.58068,176.29122c-.30672-.75561-1.3655-.75553-1.67208,.00022-2.13873,5.27249-5.18357,11.17707-8.49553,15.68945-.53026,.72246,.20076,1.68782,1.04347,1.38298l7.09949-2.56847v43.94853h2.37663v-43.9486l7.1021,2.56883c.84271,.30484,1.57366-.66052,1.0434-1.38298-3.31211-4.51246-6.3573-10.41725-8.49749-15.68996Z" fill="#f2f2f2"/><circle cx="731.62496" cy="259.32532" r="17.8247" fill="#f2f2f2"/><path d="M509.62662,64.26743h-82.0301c-1.89163,0-3.43081-1.53356-3.43081-3.41829s1.53918-3.41758,3.43081-3.41758h82.0301c1.89163,0,3.43009,1.53285,3.43009,3.41758s-1.53847,3.41829-3.43009,3.41829Z" fill="#f2f2f2"/><path d="M468.58068,75.29122c-.30672-.75561-1.3655-.75553-1.67208,.00022-2.13873,5.27249-5.18357,11.17707-8.49553,15.68945-.53026,.72246,.20076,1.68782,1.04347,1.38298l7.09949-2.56847v43.94853h2.37663v-43.9486l7.1021,2.56883c.84271,.30484,1.57366-.66052,1.0434-1.38298-3.31211-4.51246-6.3573-10.41725-8.49749-15.68996Z" fill="#f2f2f2"/><circle cx="468.62496" cy="158.32532" r="17.8247" fill="#f2f2f2"/><path d="M261.96814,503.70784c4.20605-6.96188,1.97202-16.01529-4.98988-20.22139-.67443-.40742-1.38042-.76011-2.11129-1.0546l-1.47627-73.39148-20.40041-4.58266,2.39073,87.15537c-2.46856,7.73822,1.80332,16.01242,9.54152,18.481,6.47495,2.06556,13.5219-.57463,17.04561-6.38622Z" fill="#ffb6b6"/><path d="M276.15997,214.15002s-25-6-33,11-8.68086,90.97638-8.68086,90.97638l-4.31914,150.02362,31.71152-1.39771,25.28848-184.60229-11-66Z" fill="#fa5252"/><g><path d="M264.93861,525.84467c.56271,.70557,1.41754,1.11456,2.32001,1.10999h162.34c1.64975-.00195,2.98553-1.34094,2.98355-2.99072-.00024-.20471-.02155-.40887-.06354-.60925l-2.51999-11.96997c-.21222-.99176-.91232-1.80859-1.85999-2.16998-.33768-.13251-.69727-.20038-1.06-.20001h-157.31c-.36273-.00037-.72232,.0675-1.06,.20001-.94769,.36139-1.6478,1.17816-1.85999,2.16998l-2.51999,11.96997c-.18161,.87952,.04239,1.79401,.60992,2.48999Z" fill="#ccc"/><path d="M202.78859,257.88471v187.26001c.00394,4.96893,4.03107,8.99603,9,9H489.28856c4.96893-.00391,8.99609-4.03107,9-9v-187.26001c-.01184-4.96402-4.03595-8.98367-9-8.98999H211.78856c-4.96402,.00635-8.98811,4.02597-8.99997,8.98999Z" fill="#e6e6e6"/><path d="M385.23999,414.10004c-.33002-.11005-.67999-.16003-1.03003-.16003h-64.91998c-1.91003,0-3.47003,1.54999-3.47003,3.46002v102.56h71.85004v-102.56c0-1.51001-.97998-2.85004-2.42999-3.29999Zm-26.04004,50.44c-.01996,4.23999-3.46997,7.65997-7.70996,7.63995-4.21002-.02997-7.61005-3.42999-7.63-7.63995v-11.90002c.03998-4.22998,3.51001-7.63,7.73999-7.59003,4.17999,.04004,7.56,3.42004,7.59998,7.59003v11.90002Z" fill="#ccc"/></g></svg>