<svg xmlns="http://www.w3.org/2000/svg" width="555.5" height="645.54534" viewBox="0 0 555.5 645.54534" xmlns:xlink="http://www.w3.org/1999/xlink"><path d="M38.5,406.77267H1.5v-37c0-6.60004,5.40002-12,12-12H49.5v38c0,6.06543-4.93457,11-11,11Z" fill="#3f3d56"/><path d="M544.5,49.77267h-37V12.77267c0-6.60004,5.40002-12,12-12h36V38.77267c0,6.06543-4.93457,11-11,11Z" fill="#3f3d56"/><g><polygon points="285.24123 629.76828 271.91423 629.76697 265.5745 578.36223 285.24394 578.36359 285.24123 629.76828" fill="#a0616a"/><path d="M285.71033,643.67098l-40.98248-.00156v-.51823c.00058-8.80947,7.14205-15.95078,15.95152-15.95128h.00099l7.48595-5.6792,13.96715,5.68011,3.57752,.00008-.00066,16.47009Z" fill="#2f2e41"/></g><path d="M276.79528,364.46345l-8.79528,30.53655s-19,99.93474-14,113.93474,8.68504,102.06526,8.68504,102.06526h26.01575s3.50394-22.34079,3.40157-25.70302c-.10236-3.36223,5.89764-57.36223-2.10236-65.36223l35-88,55-46-21.56693-26.77026-81.6378,5.29897Z" fill="#2f2e41"/><path d="M404,414v-16l-16-22c-6.59998,0-12,5.39996-12,12v54c0,6.59998,5.40002,12,12,12h54c6.59998,0,12-5.40002,12-12l-22-15h-15c-7.16846,0-13-5.83203-13-13Z" fill="#fa5252" opacity=".5"/><path d="M481.22,281.50002H154.77957c-10.63086,0-19.2793-8.64893-19.2793-19.28003v-113.43994c0-10.6311,8.64844-19.28003,19.2793-19.28003H481.22c10.63086,0,19.28027,8.64893,19.28027,19.28003v113.43994c0,10.6311-8.64941,19.28003-19.28027,19.28003Z" fill="#fa5252" opacity=".5"/><path d="M340.78027,260H127.78027c-10.90674,0-19.78027-8.87354-19.78027-19.78027V126.77979c0-10.90674,8.87305-19.77979,19.77979-19.77979H454.21973c10.90674,0,19.78027,8.87354,19.78027,19.78027,0,73.45752-59.76221,133.21973-133.21973,133.21973ZM127.77979,109c-9.80371,0-17.77979,7.97607-17.77979,17.77979v113.43994c0,9.8042,7.97607,17.78027,17.78027,17.78027h213c72.35498,0,131.21973-58.86475,131.21973-131.21973,0-9.8042-7.97607-17.78027-17.78027-17.78027H127.77979Z" fill="#fa5252"/><g><path d="M367.79989,377.04384l-2.11682-29.96289,16.9478-3.59737,1.11088,31.75826c.66768,.70439,1.24564,1.5161,1.70151,2.42961,2.4794,4.96843,.46162,11.00615-4.50681,13.48554-4.96843,2.4794-11.00615,.46162-13.48554-4.50681-1.58122-3.16859-1.32677-6.7683,.34899-9.60634Z" fill="#a0616a"/><path d="M340.89513,184.92256l-6.52043,4.8595,16.0247,91.3789-2.34273,5.59452,3.12531,2.93852,.95771,7.02766,12.61836,65.27834h19.24195c-.28242-2.26768,5.28057-4.59195,5-7-.32081-2.75336-2.57469-6.91812-2.8952-9.82685-.09924-.90064-.19852-1.80802-.29788-2.72167-.14584-1.34116-.29184-2.69587-.43811-4.06269-.11327-1.05845-.22669-2.12418-.34032-3.19653-2.46013-23.21649-3.47157-49.34159-4.89257-71.9006-1.8116-28.75973-4.28887-51.72352-11.28221-55.47561l-27.95859-22.8935Z" fill="#3f3d56"/></g><path d="M389.53455,628.21239c2.06592,.12937,3.20768-2.43737,1.64468-3.93333l-.1555-.61819c.02047-.04951,.04105-.09897,.06178-.14839,2.08924-4.9818,9.16992-4.94742,11.24139,.04177,1.83859,4.42817,4.17942,8.86389,4.75579,13.54594,.25838,2.0668,.14213,4.17236-.31648,6.20047,4.30807-9.41059,6.57515-19.68661,6.57515-30.02077,0-2.59652-.14213-5.19301-.43275-7.78295-.239-2.11854-.56839-4.2241-.99471-6.31034-2.30575-11.2772-7.29852-22.01825-14.50012-30.98962-3.46197-1.89248-6.34906-4.85065-8.09295-8.39652-.62649-1.27891-1.11739-2.65462-1.34991-4.05618,.39398,.05168,1.48556-5.94866,1.18841-6.3168,.54906-.83317,1.53178-1.24733,2.13144-2.06034,2.98232-4.04341,7.0912-3.33741,9.23621,2.15727,4.58224,2.31266,4.62659,6.14806,1.81495,9.83683-1.78878,2.34682-2.03456,5.52233-3.60408,8.03478,.16151,.20671,.32944,.40695,.4909,.61366,2.96106,3.79788,5.52208,7.88002,7.68104,12.16859-.61017-4.76621,.29067-10.50822,1.82641-14.20959,1.74819-4.21732,5.02491-7.76915,7.91045-11.41501,3.46601-4.37924,10.57337-2.46806,11.18401,3.08332,.00591,.05375,.01166,.10745,.01731,.1612-.4286,.24178-.84849,.49867-1.25864,.76992-2.33949,1.54723-1.53096,5.17386,1.24107,5.60174l.06277,.00967c-.15503,1.54366-.41984,3.07444-.80734,4.57937,3.70179,14.31579-4.29011,19.5299-15.70147,19.76412-.25191,.12916-.49738,.25832-.74929,.38109,1.15617,3.25525,2.07982,6.59447,2.76441,9.97891,.61359,2.99043,1.03991,6.01317,1.27885,9.04888,.29715,3.83006,.27129,7.67959-.05168,11.50323l.01939-.13562c.82024-4.21115,3.10671-8.14462,6.4266-10.87028,4.94561-4.06264,11.93282-5.55869,17.26826-8.82425,2.56833-1.57196,5.85945,.45945,5.41121,3.43708l-.02182,.14261c-.79443,.32289-1.56947,.69755-2.31871,1.11733-.4286,.24184-.84848,.49867-1.25864,.76992-2.33949,1.54729-1.53096,5.17392,1.24107,5.6018l.06282,.00965c.0452,.00646,.08397,.01295,.12911,.01944-1.36282,3.23581-3.26168,6.23922-5.63854,8.82922-2.31463,12.49713-12.25603,13.68282-22.89022,10.04354h-.00648c-1.16259,5.06378-2.86128,10.01127-5.0444,14.72621h-18.02019c-.06463-.20022-.12274-.40692-.18089-.60717,1.6664,.10341,3.34571,.00649,4.98629-.29702-1.33701-1.64059-2.67396-3.29409-4.01097-4.93462-.03229-.0323-.05816-.0646-.08397-.09689-.67817-.8396-1.36282-1.67283-2.04099-2.51246l-.00036-.00102c-.04245-2.57755,.26652-5.14662,.87876-7.63984l.00057-.00035Z" fill="#f2f2f2"/><path d="M187.98319,644.35534c0,.66003,.53003,1.19,1.19006,1.19h253.28998c.65997,0,1.19-.52997,1.19-1.19,0-.65997-.53003-1.19-1.19-1.19H189.17326c-.66003,0-1.19006,.53003-1.19006,1.19Z" fill="#ccc"/><path d="M22.69,0C10.15866,0,0,10.15866,0,22.69V407H2V157.67999C2,71.70001,71.70001,2,157.67999,2l397.68367-.36367-.36367-1.63633H22.69Z" fill="#3f3d56"/><path d="M189,256c0,1.33997-.03998,2.67999-.10999,4h-61.10999c-10.37006,0-18.78003-8.41003-18.78003-18.78003v-56.77997c2.63-.29004,5.29999-.44,8-.44,39.76001,0,72,32.23999,72,72Z" fill="#fa5252"/><path d="M415.55057,182.99647H220.18172c-3.32953,0-6.03599,2.70647-6.03599,6.03599s2.70647,6.03599,6.03599,6.03599h195.36885c3.32953,0,6.03599-2.70647,6.03599-6.03599s-2.70647-6.03599-6.03599-6.03599Z" fill="#fa5252"/><path d="M280.75629,149.15202h-60.57457c-3.32953,0-6.03599,2.70647-6.03599,6.03599s2.70647,6.03599,6.03599,6.03599h60.57457c3.32953,0,6.03599-2.70647,6.03599-6.03599s-2.70647-6.03599-6.03599-6.03599Z" fill="#fa5252"/><g><polygon points="340.24123 629.76828 326.91423 629.76697 320.5745 578.36223 340.24394 578.36359 340.24123 629.76828" fill="#a0616a"/><path d="M340.71033,643.67098l-40.98248-.00156v-.51823c.00058-8.80947,7.14205-15.95078,15.95152-15.95128h.00099l7.48595-5.6792,13.96715,5.68011,3.57752,.00008-.00066,16.47009Z" fill="#2f2e41"/></g><path d="M312.5,376.5l7,61-15.5,63.5,13.5,110.5,25,2s12-81,1-109l28-110-21-12-38-6Z" fill="#2f2e41"/><path d="M338.58268,170.38583c-4.41168-4.70954-2.90076-9.00038-9.72151-10.20274-4.62394-.8151-10.18921,.00239-14.92426-.00199-11.90003-.011-13.68894,6.56911-20.54001,15.31106-17.64659,22.517-1.22894,40.5864-5.39689,67.50784-3.87262,25.01391,6.50628,38.63621,1.90945,63.71755-2.18814,11.93899-6.42969,28.75043-13.85156,42.48065-4.09814,7.58142-6.06348,16.40118-5.05811,24.80182,.88965,7.43469,96.90692,8.30154,99.56385,6.47223,3.12865-2.1541,2.07062-6.77208,2.37615-9.98945,.82773-8.71622,1.66982-14.82232-.42325-23.72477-1.96683-8.36553-1.93008-18.08568-1.95748-26.73193-.02642-8.33578-11.7675,5.42562-11.08544-2.89646,.86991-10.61412,2.59475-20.99827,4.49475-31.51597,1.47061-8.14074,2.04693-16.50603,4.20764-24.47678,2.48895-9.1816,5.45647-17.2585,5.55628-26.88836,.07769-7.49552,1.88667-17.97407-1.09344-24.84144-4.39014-10.11665-13.24348-19.22664-20.71213-27.3296-3.71373-4.02914-7.40085-6.65144-11.64325-9.99088" fill="#3f3d56"/><g><path d="M187.84909,216.48957l27.0348,13.09105-5.32361,16.48721-28.0904-14.85767c-.94338,.22803-1.93511,.3248-2.9543,.265-5.54319-.32527-9.77319-5.08263-9.44792-10.62582,.32527-5.54319,5.08263-9.77319,10.62582-9.44792,3.53514,.20744,6.52962,2.22132,8.15562,5.08816Z" fill="#a0616a"/><path d="M270.77531,291.21231c-2.58952-1.37172-42.03513-26.52723-62.77531-38.21231-.38867-.21898-3.06582,1.21536-3.43935,1.0049-.57014-.32123-.02813-2.70485-.56065-3.0049-1.15483-.65069-3.31193,.82288-4.26886,.28365-3.46532-1.95273-2.73114-10.28365-2.73114-10.28365l7-17,11.44396-.36523,2.55604,4.36523,5.42587-.65374,3.57413,4.65374,41.19216,16.1621c1.60107-21.47809,10.18994-39.19672,19.49414-56.53049l3.76092,.7105c9.48421,1.79183,15.81038,10.81843,14.25842,20.34483l-10.86243,66.67644c-1.05159,6.2035-5.4409,11.20585-11.45502,13.05439-4.34598,1.33643-8.85531,.78444-12.61288-1.20547Z" fill="#3f3d56"/></g><circle cx="311.67051" cy="123.25689" r="30.60491" fill="#a0616a"/><path d="M345.63943,124.18752c-1.06982-.42999-2.14014-.78998-3.06982-1.01996,5.2518,6.61167-3.61409,12.41385-4.98973,19.1804,.11451,5.37162-2.82238,7.80842-7.96047,9.27956l.12012-.41998c-41.7908,10.70492,2.29312-24.92919-30.38049-25.91102-4.97986,.29102,1.67062-15.3667-3.44958-14.57897-13,2-13.60607,.62565-14.99939,10.00114-2.53089,.82882-6.00061-3.00114-5.59046-7.00114-.92626-1.6833-3.34658-.60581-4.32001-3.1603-1.03009-1.94968-2.99005-14.69968,1.47968-8.73972,.2957-4.06876-.8552-12.38692,4.22021-5.27997-.66048-3.23315,2.14591-1.83304,3.31982,.08997,.83008-1.89001,1.66016-3.76996,2.47998-5.65997-.22998,.84998-.08008,1.77997,.34033,2.62,2.35874-5.01123,5.96-5.46511,11.57959-6.88-.06542,1.5351-.02999,3.33123,.18018,4.71997,6.52529-10.81121,22.32813-7.79075,28.62926,1.76054,3.99323,.91177,5.6808-.4705,9.6808,.5295,10.74785,2.68696,15.66116,19.25956,12.72998,30.46997Z" fill="#2f2e41"/><path d="M427,413h37v-37c0-6.60004-5.40002-12-12-12h-36v38c0,6.06543,4.93457,11,11,11Z" fill="#fa5252"/><ellipse cx="127.70614" cy="55.21025" rx="8.45661" ry="8.64507" fill="#3f3d56"/><ellipse cx="156.91989" cy="55.21025" rx="8.45661" ry="8.64507" fill="#3f3d56"/><ellipse cx="186.13364" cy="55.21025" rx="8.45661" ry="8.64507" fill="#3f3d56"/><path d="M393.5,84.27267c-.82715,0-1.5,.67285-1.5,1.5v10c0,.82715,.67285,1.5,1.5,1.5h10c.82715,0,1.5-.67285,1.5-1.5v-10c0-.82715-.67285-1.5-1.5-1.5h-10Z" fill="#fa5252"/><path d="M416.5,84.27267c-.82715,0-1.5,.67285-1.5,1.5v10c0,.82715,.67285,1.5,1.5,1.5h10c.82715,0,1.5-.67285,1.5-1.5v-10c0-.82715-.67285-1.5-1.5-1.5h-10Z" fill="#fa5252"/><path d="M439.5,84.27267c-.82715,0-1.5,.67285-1.5,1.5v10c0,.82715,.67285,1.5,1.5,1.5h10c.82715,0,1.5-.67285,1.5-1.5v-10c0-.82715-.67285-1.5-1.5-1.5h-10Z" fill="#fa5252"/></svg>