<svg xmlns="http://www.w3.org/2000/svg" data-name="Layer 1" width="691.31544" height="531.59202" viewBox="0 0 691.31544 531.59202" xmlns:xlink="http://www.w3.org/1999/xlink"><path d="M361.7548,201.89456c5.20383.9752,8.82943,7.2667,10.12533,13.64366s.87557,13.08147,1.4002,19.6283,2.30291,13.49941,6.6586,17.191c-4.55255-.84317-8.713-4.516-10.87216-9.598a7.60209,7.60209,0,0,1-2.4983,6.93014,14.10218,14.10218,0,0,1-6.06192,2.66712L342.7663,256.933c-3.22294.83138-6.63383,1.6505-9.74357.30436-3.98758-1.72615-6.50636-6.56334-8.48575-11.22329a65.92727,65.92727,0,0,1-5.13091-17.32861c-.78211-6.11018-.22681-12.6514,2.33253-17.94755a22.90648,22.90648,0,0,1,14.635-11.95443c5.84392-1.63926,11.91228-1.2872,17.89449-.92652,3.39777.20486,6.92211.45141,9.92692,2.44533" transform="translate(-254.34228 -184.20399)" fill="#2f2e41"/><polygon points="103.603 504.233 116.002 504.233 121.901 456.407 103.601 456.408 103.603 504.233" fill="#a0616a"/><path d="M374.47032,689.55333V681.1476l-3.25961.19914-13.26884.78607-3.07091.18865-2.34771,28.15184-.12577,1.50925h8.804l.283-1.49876,1.27864-6.81261,3.30152,6.81261.72319,1.49876h23.34106a5.2739,5.2739,0,0,0,5.24047-5.251C396.35452,702.13045,376.94381,692.18405,374.47032,689.55333Z" transform="translate(-254.34228 -184.20399)" fill="#2f2e41"/><polygon points="254.973 466.497 265.419 459.817 244.624 416.347 229.207 426.207 254.973 466.497" fill="#a0616a"/><path d="M523.83865,642.73892l-4.52839-7.08167-2.63889,1.92382-10.75525,7.81052-2.48555,1.81332,13.18824,24.98215.70712,1.33928,7.41715-4.74293-.569-1.41514-2.5929-6.42833,6.4516,3.96087,1.4167.87309,19.66439-12.57446a5.27391,5.27391,0,0,0,1.58616-7.247C549.05129,641.5453,527.33975,643.62272,523.83865,642.73892Z" transform="translate(-254.34228 -184.20399)" fill="#2f2e41"/><path d="M782.02773,254.94631H577.62137a4.408,4.408,0,1,1,0-8.81606H782.02773a4.408,4.408,0,0,1,0,8.81606Z" transform="translate(-254.34228 -184.20399)" fill="#e6e6e6"/><path d="M782.02773,348.94631H577.62137a4.408,4.408,0,1,1,0-8.81606H782.02773a4.408,4.408,0,0,1,0,8.81606Z" transform="translate(-254.34228 -184.20399)" fill="#fa5252"/><path d="M885.50183,301.97713H577.62137a4.408,4.408,0,1,1,0-8.81606H885.50183a4.408,4.408,0,0,1,0,8.81606Z" transform="translate(-254.34228 -184.20399)" fill="#fa5252"/><path d="M786.43533,362.1916a1.00005,1.00005,0,0,1-1-1V327.885a1,1,0,0,1,2,0V361.1916A1,1,0,0,1,786.43533,362.1916Z" transform="translate(-254.34228 -184.20399)" fill="#3f3d56"/><path d="M555.75223,233.55391a1,1,0,0,1,1-1h33.30664a1,1,0,0,1,0,2H556.75223A1.00005,1.00005,0,0,1,555.75223,233.55391Z" transform="translate(-254.34228 -184.20399)" fill="#3f3d56"/><path d="M573.40555,268.1916a1,1,0,0,1-1-1V233.885a1,1,0,1,1,2,0V267.1916A1.00005,1.00005,0,0,1,573.40555,268.1916Z" transform="translate(-254.34228 -184.20399)" fill="#3f3d56"/><path d="M390.86224,377.02635l-70.7576,12.27492.64058,10.76039s-13.61224,46.445-6.33967,60.49225S327.14633,511.388,327.14633,511.388s-26.98239,143.37067,5.63842,146.26831,71.74678-.0878,71.68379-9.59508-25.16527-182.77356-25.16527-182.77356,42.10228,92.12119,50.10228,92.19373,8,.07255,8,7.07255-10,1.51159,0,11.75579,23.88976,55.161,35.94488,54.7026,67.30708-33.31666,67.1811-41.38753S390.86224,377.02635,390.86224,377.02635Z" transform="translate(-254.34228 -184.20399)" fill="#2f2e41"/><path d="M320.24756,391.702l3.158-36.148L308.1457,298.97713s-3.158-28.2185,6.05093-30.32086,12.54845-2.26772,12.54845-2.26772l6.21165-11.83464h20.97638l10.47244,10s14,9,14,13,14.91338,83.4252,12.45669,85.2126-3.08048,4.16361.23141,4.47551,9.3119-1.68811,5.3119,2.31189a24.54482,24.54482,0,0,0-5.54331,9.65354Z" transform="translate(-254.34228 -184.20399)" fill="#e6e6e6"/><path d="M473.31493,383.80273a9.61919,9.61919,0,0,0-12.76594-7.18662l-32.89214-34.88266-11.88534,6.72573,39.36941,41.145a9.6057,9.6057,0,0,0,18.174-5.80148Z" transform="translate(-254.34228 -184.20399)" fill="#a0616a"/><path d="M345.209,264.65677s-5.87521,22.45,3.15379,30.29829,16.10929,16.21061,20.68364,17.98961,26.32523,28.09105,30.61558,28.21071,1.95077,5.45847,8.18443,6.95347,7.893,1.211,8.177,2.87032,18.00391,18.96575,18.00391,18.96575L446.858,358.31153l-61.60435-78.91594a40.46918,40.46918,0,0,0-40.0446-14.73882Z" transform="translate(-254.34228 -184.20399)" fill="#e6e6e6"/><path d="M496.28712,376.77111,308.882,458.38787a4.408,4.408,0,1,1-3.52014-8.08279L492.767,368.68832a4.408,4.408,0,0,1,3.52013,8.08279Z" transform="translate(-254.34228 -184.20399)" fill="#fa5252"/><path d="M577.12038,705.49287a1.21641,1.21641,0,0,0,.88157-2.10833l-.08334-.33136.03311-.07954a3.26656,3.26656,0,0,1,6.02555.02239c.98551,2.37357,2.24023,4.75118,2.54918,7.26083a9.66371,9.66371,0,0,1-.16964,3.32354,38.744,38.744,0,0,0,3.52438-16.09158,37.39476,37.39476,0,0,0-.232-4.17177q-.19216-1.70335-.53318-3.38244a39.1929,39.1929,0,0,0-7.77228-16.61089,10.43034,10.43034,0,0,1-4.33794-4.50066,7.95606,7.95606,0,0,1-.72357-2.17417,9.819,9.819,0,0,0,.637-3.3859c.2943-.44659.82106-.66858,1.14248-1.10437,1.59857-2.16733,3.801-1.7889,4.95074,1.15633,2.45615,1.23962,2.47993,3.29545.97285,5.27268-.95882,1.25793-1.09056,2.96005-1.93185,4.30676.08657.1108.17659.21814.26313.32894a39.44567,39.44567,0,0,1,4.11716,6.52254,16.39792,16.39792,0,0,1,.979-7.61655c.937-2.26054,2.69342-4.16438,4.24011-6.11861a3.36576,3.36576,0,0,1,5.9948,1.6527l.00928.08641q-.34461.1944-.67465.41269a1.65,1.65,0,0,0,.66523,3.00261l.03364.00519a16.41688,16.41688,0,0,1-.43274,2.45461c1.98421,7.67348-2.29957,10.46831-8.41622,10.59386-.135.06924-.26661.13847-.40163.20427a40.26314,40.26314,0,0,1,2.16725,10.19918,38.18907,38.18907,0,0,1-.0277,6.1659l.01039-.0727a10.09082,10.09082,0,0,1,3.44475-5.82663c2.65092-2.17763,6.39617-2.97954,9.256-4.72993a1.89376,1.89376,0,0,1,2.90049,1.84233l-.01169.07644a11.0809,11.0809,0,0,0-1.24287.59891q-.3446.19443-.67465.41268a1.65,1.65,0,0,0,.66524,3.00265l.03367.00517.06921.01042a16.43106,16.43106,0,0,1-3.02235,4.73259c-1.24067,6.69865-6.56941,7.3342-12.26949,5.38349h-.00348a40.25089,40.25089,0,0,1-2.70387,7.89346h-9.65909c-.03464-.10732-.06579-.21812-.097-.32545a10.97456,10.97456,0,0,0,2.67273-.15921c-.71666-.87938-1.43328-1.76568-2.14994-2.645a.59907.59907,0,0,1-.045-.05194c-.36351-.45-.73049-.89666-1.094-1.34671l-.00019-.00055a16.07508,16.07508,0,0,1,.471-4.09507Z" transform="translate(-254.34228 -184.20399)" fill="#f2f2f2"/><path d="M255.533,715.48868l389.72565.30733a1.19068,1.19068,0,0,0,0-2.38137L255.533,713.10731a1.19069,1.19069,0,0,0,0,2.38137Z" transform="translate(-254.34228 -184.20399)" fill="#cacaca"/><circle cx="89.27586" cy="41.49952" r="23.31585" fill="#a0616a"/><path d="M333.46847,227.11364c-.04213-1.95781-3.24581-2.2698-4.42436-.70589s-.88547,3.74676-.53688,5.67374q1.25349,6.9292,2.507,13.85842c.99129,5.47977,2.393,11.5936,7.10813,14.55645-3.5409,1.5572-7.37283,3.14944-11.16062,2.36486s-7.02969-5.11991-5.21217-8.53451c-.90414,2.58046-1.8637,5.25515-4.11721,6.97288a5.20065,5.20065,0,0,1-5.04213.87954c-3.31945-1.33191-1.71258-6.12653-3.18811-9.35206-4.2362-9.2605-8.22516-18.17169-1.50834-26.53146.96164-1.19687.19856-3.50971.19743-5.66476-.00607-11.6285,11.85373-21.9375,23.18272-24.55971q.36266-.08394.69625-.149a23.11379,23.11379,0,0,1,17.99419,4.10864c2.7515-2.30414,7.20456-1.28237,9.68583,1.31053s7.1319,6.67831,7.75536,10.21259-.72546,6.85316,1,10c-3.93636.77849-10.14689-.51311-13.07289-3.25892-1.8866,3.6547-6.74484,4.33244-10.85659,4.43037s-8.90268.40962-11.22036,3.80733" transform="translate(-254.34228 -184.20399)" fill="#2f2e41"/><path d="M598.10562,184.20446c-26.4073.59467-52.81821,1.10229-79.22338,1.78449-4.92141.12715-10.33255.53827-14.14206,4.0357-3.79338,3.48263-4.42944,8.96325-4.50058,13.82467-.19053,13.0192.12713,26.06539.19874,39.086l.24573,44.68656c.01062,1.92984,2.45143,1.85455,3,0,7.6308-25.79672,26.27487-51.59341-.4256-77.39014-3.51318-3.39425-.68171-10.60461,1.48111-15.1644,2.25962-4.76388,7.444-5.777,12.24058-6.01126,6.15482-.30063,12.33621-.30252,18.49673-.44125l19.21279-.43266,43.41593-.9777c1.92751-.04341,1.93445-3.04356,0-3Z" transform="translate(-254.34228 -184.20399)" fill="#f2f2f2"/><path d="M847.73168,384.12187c26.40731-.59467,52.81822-1.10228,79.22339-1.78449,4.9214-.12715,10.33255-.53826,14.14205-4.03569,3.79339-3.48264,4.42944-8.96325,4.50058-13.82467.19053-13.0192-.12713-26.0654-.19873-39.086q-.12288-22.3433-.24574-44.68657c-.01061-1.92984-2.78333-1.92182-3,0-2.90876,25.79718-31.09687,51.59812.4256,77.39014,3.78076,3.09347.6817,10.60462-1.48111,15.16441-2.25963,4.76389-7.444,5.777-12.24059,6.01127-6.15482.30062-12.3362.30252-18.49672.44125l-19.2128.43266-43.41593.97769c-1.9275.04341-1.93445,3.04357,0,3Z" transform="translate(-254.34228 -184.20399)" fill="#f2f2f2"/><path d="M656.72776,663.01125l-115.15984-47.7798a6.07305,6.07305,0,0,1-3.28207-7.93674l27.1439-65.42277a6.07306,6.07306,0,0,1,7.93674-3.28206l145.24677,60.26287a6.07305,6.07305,0,0,1,3.28206,7.93674l-14.66084,35.33584A38.6468,38.6468,0,0,1,656.72776,663.01125Z" transform="translate(-254.34228 -184.20399)" fill="#f2f2f2"/><path d="M649.37251,655.76613l-79.8263-33.11992a30.91752,30.91752,0,0,1-16.68992-40.35988l5.15865-12.4335a30.91772,30.91772,0,0,1,40.36-16.69012l92.2598,38.27857a30.91773,30.91773,0,0,1,16.68984,40.36009A44.39411,44.39411,0,0,1,649.37251,655.76613Z" transform="translate(-254.34228 -184.20399)" fill="#fff"/><path d="M644.25132,594.14913l-45.42349-18.8462a1.56624,1.56624,0,1,1,1.20045-2.89333l45.42349,18.84619a1.56625,1.56625,0,0,1-1.20045,2.89334Z" transform="translate(-254.34228 -184.20399)" fill="#e6e6e6"/><path d="M631.45175,624.99893l-45.42349-18.8462a1.56624,1.56624,0,1,1,1.20044-2.89334l45.42349,18.8462a1.56624,1.56624,0,0,1-1.20044,2.89334Z" transform="translate(-254.34228 -184.20399)" fill="#e6e6e6"/><path d="M671.80643,623.67377l-79.38258-32.93583a1.56624,1.56624,0,1,1,1.20044-2.89333l79.38259,32.93582a1.56625,1.56625,0,0,1-1.20045,2.89334Z" transform="translate(-254.34228 -184.20399)" fill="#f2f2f2"/><path d="M471.72776,538.01125l-115.15984-47.7798a6.07305,6.07305,0,0,1-3.28207-7.93674l27.1439-65.42277a6.07306,6.07306,0,0,1,7.93674-3.28206l145.24677,60.26287a6.07305,6.07305,0,0,1,3.28206,7.93674l-14.66084,35.33584A38.6468,38.6468,0,0,1,471.72776,538.01125Z" transform="translate(-254.34228 -184.20399)" fill="#f2f2f2"/><path d="M464.37251,530.76613l-79.8263-33.11992a30.91752,30.91752,0,0,1-16.68992-40.35988l5.15865-12.4335a30.91772,30.91772,0,0,1,40.36-16.69012l92.2598,38.27857a30.91773,30.91773,0,0,1,16.68984,40.36009A44.39411,44.39411,0,0,1,464.37251,530.76613Z" transform="translate(-254.34228 -184.20399)" fill="#fff"/><path d="M459.25132,469.14913l-45.42349-18.8462a1.56624,1.56624,0,1,1,1.20045-2.89333l45.42349,18.84619a1.56625,1.56625,0,0,1-1.20045,2.89334Z" transform="translate(-254.34228 -184.20399)" fill="#e6e6e6"/><path d="M446.45175,499.99893l-45.42349-18.8462a1.56624,1.56624,0,1,1,1.20044-2.89334l45.42349,18.8462a1.56624,1.56624,0,0,1-1.20044,2.89334Z" transform="translate(-254.34228 -184.20399)" fill="#e6e6e6"/><path d="M486.80643,498.67377l-79.38258-32.93583a1.56624,1.56624,0,1,1,1.20044-2.89333l79.38259,32.93582a1.56625,1.56625,0,0,1-1.20045,2.89334Z" transform="translate(-254.34228 -184.20399)" fill="#f2f2f2"/><path d="M396.21626,424.90689a9.61919,9.61919,0,0,0-9.15677-11.43549l-17.47873-44.64512-13.53744,1.7985,21.14746,52.87391a9.60571,9.60571,0,0,0,19.02548,1.4082Z" transform="translate(-254.34228 -184.20399)" fill="#a0616a"/><path d="M321.89768,266.52873s-13.83689,18.62953-8.3937,29.28273,8.88676,21.05513,12.46528,24.41425,13.9246,35.89193,17.8596,37.60576-.22971,5.792,4.99407,9.50762,6.86908,4.07206,6.51263,5.71734,9.61491,24.31859,9.61491,24.31859l16.24772-5.99767L346.59914,271.02988Z" transform="translate(-254.34228 -184.20399)" fill="#e6e6e6"/></svg>