<?xml version="1.0" encoding="UTF-8"?>
<svg id="Layer_1" data-name="Layer 1" xmlns="http://www.w3.org/2000/svg" viewBox="0 0 483.71 327.04">
  <defs>
    <style>
      .cls-1 {
        fill: #fa5252;
      }
    </style>
  </defs>
  <path class="cls-1" d="M159.96,18.7c27.21,0,49.35,22.14,49.35,49.35v63.14c1.66-.56,3.4-.93,5.24-.93,5.56,0,10.45,2.76,13.46,6.97V68.05C228.01,30.53,197.49,0,159.96,0c-23.47,0-44.2,11.95-56.44,30.08,5.27,3.4,10.3,7.13,15.09,11.12,8.81-13.52,24.04-22.5,41.35-22.5Z"/>
  <path class="cls-1" d="M269.15,130.26c1.84,0,3.59,.37,5.24,.93v-63.14c0-27.21,22.14-49.35,49.35-49.35,17.31,0,32.54,8.98,41.35,22.5,4.79-3.99,9.82-7.72,15.09-11.12C367.95,11.95,347.21,0,323.74,0c-37.52,0-68.05,30.53-68.05,68.05v69.18c3-4.2,7.89-6.96,13.45-6.96Z"/>
  <path class="cls-1" d="M203.72,229.23c-33.72,8.1-62.37,26.51-83.25,51.05-11.51,13.49-20.67,28.91-27.04,45.39l44.02,.25,250.81,1.12s.04-.06,.04-.06c-27.59-73.49-106.29-116.57-184.57-97.75Z"/>
  <path class="cls-1" d="M214.56,170.83c-9.15,0-16.56,7.41-16.56,16.56s7.41,16.56,16.56,16.56,16.56-7.41,16.56-16.56-7.41-16.56-16.56-16.56Z"/>
  <path class="cls-1" d="M269.15,203.95c9.15,0,16.56-7.41,16.56-16.56s-7.41-16.56-16.56-16.56-16.56,7.41-16.56,16.56,7.41,16.56,16.56,16.56Z"/>
  <path class="cls-1" d="M422.63,132.54l25.22-102.79s-.04-.04-.04-.04c-21.37,2.65-41.14,10.45-58.07,22.08-5.97,4.1-11.58,8.66-16.78,13.65-24.97,23.98-40.53,57.69-40.53,95.05,0,28.97,9.36,55.8,25.19,77.56,8.73,11.97,19.44,22.39,31.59,30.79l8.77-35.71c45.28-13.47,79.49-52.63,85.72-100.6h-61.07Z"/>
  <path class="cls-1" d="M126.08,238.05c15.83-21.77,25.19-48.59,25.19-77.56,0-37.35-15.56-71.06-40.53-95.05-5.2-5-10.82-9.56-16.78-13.65-16.93-11.62-36.7-19.42-58.07-22.08,0,0-.04,0-.04,.04l25.22,102.79H0c6.22,47.97,40.44,87.14,85.72,100.6l8.77,35.71c12.16-8.41,22.86-18.82,31.59-30.79Z"/>
</svg>